<svg width="240" height="320" viewBox="0 0 240 320" fill="none" xmlns="http://www.w3.org/2000/svg">
<g clip-path="url(#clip0_151_69565)">
<mask id="mask0_151_69565" style="mask-type:alpha" maskUnits="userSpaceOnUse" x="-480" y="-320" width="1432" height="832">
<rect x="-480" y="-320" width="1432" height="832" fill="#FE7802"/>
</mask>
<g mask="url(#mask0_151_69565)">
<rect width="20" height="20" fill="#FDBA01"/>
<rect x="20" width="20" height="20" fill="#FE9B01"/>
<rect x="40" width="20" height="20" fill="#FDBA01"/>
<rect x="60" width="20" height="20" fill="#FE9B01"/>
<rect x="20" y="20" width="20" height="20" fill="#FDBA01"/>
<rect x="40" y="20" width="20" height="20" fill="#FE9B01"/>
<rect x="60" y="20" width="20" height="20" fill="#FDBA01"/>
<rect y="20" width="20" height="20" fill="#FE9B01"/>
<rect x="80" width="20" height="20" fill="#FDBA01"/>
<rect x="100" width="20" height="20" fill="#FE9B01"/>
<rect x="120" width="20" height="20" fill="#FDBA01"/>
<rect x="140" width="20" height="20" fill="#FE9B01"/>
<rect x="100" y="20" width="20" height="20" fill="#FDBA01"/>
<rect x="120" y="20" width="20" height="20" fill="#FE9B01"/>
<rect x="140" y="20" width="20" height="20" fill="#FDBA01"/>
<rect x="80" y="20" width="20" height="20" fill="#FE9B01"/>
<rect y="40" width="20" height="20" fill="#FDBA01"/>
<rect x="20" y="40" width="20" height="20" fill="#FE9B01"/>
<rect x="40" y="40" width="20" height="20" fill="#FDBA01"/>
<rect x="60" y="40" width="20" height="20" fill="#FE9B01"/>
<rect x="20" y="60" width="20" height="20" fill="#FDBA01"/>
<rect x="40" y="60" width="20" height="20" fill="#FE9B01"/>
<rect x="60" y="60" width="20" height="20" fill="#FDBA01"/>
<rect y="60" width="20" height="20" fill="#FE9B01"/>
<rect x="80" y="40" width="20" height="20" fill="#FDBA01"/>
<rect x="100" y="40" width="20" height="20" fill="#FE9B01"/>
<rect x="120" y="40" width="20" height="20" fill="#FDBA01"/>
<rect x="140" y="40" width="20" height="20" fill="#FE9B01"/>
<rect x="100" y="60" width="20" height="20" fill="#FDBA01"/>
<rect x="120" y="60" width="20" height="20" fill="#FE9B01"/>
<rect x="140" y="60" width="20" height="20" fill="#FDBA01"/>
<rect x="80" y="60" width="20" height="20" fill="#FE9B01"/>
<rect y="80" width="20" height="20" fill="#FDBA01"/>
<rect x="20" y="80" width="20" height="20" fill="#FE9B01"/>
<rect x="40" y="80" width="20" height="20" fill="#FDBA01"/>
<rect x="60" y="80" width="20" height="20" fill="#FE9B01"/>
<rect x="20" y="100" width="20" height="20" fill="#FDBA01"/>
<rect x="40" y="100" width="20" height="20" fill="#FE9B01"/>
<rect x="60" y="100" width="20" height="20" fill="#FDBA01"/>
<rect y="100" width="20" height="20" fill="#FE9B01"/>
<rect x="80" y="80" width="20" height="20" fill="#FDBA01"/>
<rect x="100" y="80" width="20" height="20" fill="#FE9B01"/>
<rect x="120" y="80" width="20" height="20" fill="#FDBA01"/>
<rect x="140" y="80" width="20" height="20" fill="#FE9B01"/>
<rect x="100" y="100" width="20" height="20" fill="#FDBA01"/>
<rect x="120" y="100" width="20" height="20" fill="#FE9B01"/>
<rect x="140" y="100" width="20" height="20" fill="#FDBA01"/>
<rect x="80" y="100" width="20" height="20" fill="#FE9B01"/>
<rect y="120" width="20" height="20" fill="#FDBA01"/>
<rect x="20" y="120" width="20" height="20" fill="#FE9B01"/>
<rect x="40" y="120" width="20" height="20" fill="#FDBA01"/>
<rect x="60" y="120" width="20" height="20" fill="#FE9B01"/>
<rect x="20" y="140" width="20" height="20" fill="#FDBA01"/>
<rect x="40" y="140" width="20" height="20" fill="#FE9B01"/>
<rect x="60" y="140" width="20" height="20" fill="#FDBA01"/>
<rect y="140" width="20" height="20" fill="#FE9B01"/>
<rect x="80" y="120" width="20" height="20" fill="#FDBA01"/>
<rect x="100" y="120" width="20" height="20" fill="#FE9B01"/>
<rect x="120" y="120" width="20" height="20" fill="#FDBA01"/>
<rect x="140" y="120" width="20" height="20" fill="#FE9B01"/>
<rect x="100" y="140" width="20" height="20" fill="#FDBA01"/>
<rect x="120" y="140" width="20" height="20" fill="#FE9B01"/>
<rect x="140" y="140" width="20" height="20" fill="#FDBA01"/>
<rect x="80" y="140" width="20" height="20" fill="#FE9B01"/>
<rect x="160" y="-0.000244141" width="20" height="20" fill="#FDBA01"/>
<rect x="180" y="-0.000244141" width="20" height="20" fill="#FE9B01"/>
<rect x="200" y="-0.000244141" width="20" height="20" fill="#FDBA01"/>
<rect x="220" y="-0.000244141" width="20" height="20" fill="#FE9B01"/>
<rect x="180" y="19.9998" width="20" height="20" fill="#FDBA01"/>
<rect x="200" y="19.9998" width="20" height="20" fill="#FE9B01"/>
<rect x="220" y="19.9998" width="20" height="20" fill="#FDBA01"/>
<rect x="160" y="19.9998" width="20" height="20" fill="#FE9B01"/>
<rect x="160" y="39.9998" width="20" height="20" fill="#FDBA01"/>
<rect x="180" y="39.9998" width="20" height="20" fill="#FE9B01"/>
<rect x="200" y="39.9998" width="20" height="20" fill="#FDBA01"/>
<rect x="220" y="39.9998" width="20" height="20" fill="#FE9B01"/>
<rect x="180" y="59.9998" width="20" height="20" fill="#FDBA01"/>
<rect x="200" y="59.9998" width="20" height="20" fill="#FE9B01"/>
<rect x="220" y="59.9998" width="20" height="20" fill="#FDBA01"/>
<rect x="160" y="59.9998" width="20" height="20" fill="#FE9B01"/>
<rect x="160" y="79.9998" width="20" height="20" fill="#FDBA01"/>
<rect x="180" y="79.9998" width="20" height="20" fill="#FE9B01"/>
<rect x="200" y="79.9998" width="20" height="20" fill="#FDBA01"/>
<rect x="220" y="79.9998" width="20" height="20" fill="#FE9B01"/>
<rect x="180" y="99.9998" width="20" height="20" fill="#FDBA01"/>
<rect x="200" y="99.9998" width="20" height="20" fill="#FE9B01"/>
<rect x="220" y="99.9998" width="20" height="20" fill="#FDBA01"/>
<rect x="160" y="99.9998" width="20" height="20" fill="#FE9B01"/>
<rect x="160" y="120" width="20" height="20" fill="#FDBA01"/>
<rect x="180" y="120" width="20" height="20" fill="#FE9B01"/>
<rect x="200" y="120" width="20" height="20" fill="#FDBA01"/>
<rect x="220" y="120" width="20" height="20" fill="#FE9B01"/>
<rect x="180" y="140" width="20" height="20" fill="#FDBA01"/>
<rect x="200" y="140" width="20" height="20" fill="#FE9B01"/>
<rect x="220" y="140" width="20" height="20" fill="#FDBA01"/>
<rect x="160" y="140" width="20" height="20" fill="#FE9B01"/>
<rect x="160.001" y="160" width="20" height="20" fill="#FDBA01"/>
<rect x="180.001" y="160" width="20" height="20" fill="#FE9B01"/>
<rect x="200.001" y="160" width="20" height="20" fill="#FDBA01"/>
<rect x="220.001" y="160" width="20" height="20" fill="#FE9B01"/>
<rect x="180.001" y="180" width="20" height="20" fill="#FDBA01"/>
<rect x="200.001" y="180" width="20" height="20" fill="#FE9B01"/>
<rect x="220.001" y="180" width="20" height="20" fill="#FDBA01"/>
<rect x="160.001" y="180" width="20" height="20" fill="#FE9B01"/>
<rect x="160.001" y="200" width="20" height="20" fill="#FDBA01"/>
<rect x="180.001" y="200" width="20" height="20" fill="#FE9B01"/>
<rect x="200.001" y="200" width="20" height="20" fill="#FDBA01"/>
<rect x="220.001" y="200" width="20" height="20" fill="#FE9B01"/>
<rect x="180.001" y="220" width="20" height="20" fill="#FDBA01"/>
<rect x="200.001" y="220" width="20" height="20" fill="#FE9B01"/>
<rect x="220.001" y="220" width="20" height="20" fill="#FDBA01"/>
<rect x="160.001" y="220" width="20" height="20" fill="#FE9B01"/>
<rect x="160.001" y="240" width="20" height="20" fill="#FDBA01"/>
<rect x="180.001" y="240" width="20" height="20" fill="#FE9B01"/>
<rect x="200.001" y="240" width="20" height="20" fill="#FDBA01"/>
<rect x="220.001" y="240" width="20" height="20" fill="#FE9B01"/>
<rect x="180.001" y="260" width="20" height="20" fill="#FDBA01"/>
<rect x="200.001" y="260" width="20" height="20" fill="#FE9B01"/>
<rect x="220.001" y="260" width="20" height="20" fill="#FDBA01"/>
<rect x="160.001" y="260" width="20" height="20" fill="#FE9B01"/>
<rect x="160.001" y="280" width="20" height="20" fill="#FDBA01"/>
<rect x="180.001" y="280" width="20" height="20" fill="#FE9B01"/>
<rect x="200.001" y="280" width="20" height="20" fill="#FDBA01"/>
<rect x="220.001" y="280" width="20" height="20" fill="#FE9B01"/>
<rect x="180.001" y="300" width="20" height="20" fill="#FDBA01"/>
<rect x="200.001" y="300" width="20" height="20" fill="#FE9B01"/>
<rect x="220.001" y="300" width="20" height="20" fill="#FDBA01"/>
<rect x="160.001" y="300" width="20" height="20" fill="#FE9B01"/>
<rect y="160" width="20" height="20" fill="#FDBA01"/>
<rect x="20" y="160" width="20" height="20" fill="#FE9B01"/>
<rect x="40" y="160" width="20" height="20" fill="#FDBA01"/>
<rect x="60" y="160" width="20" height="20" fill="#FE9B01"/>
<rect x="20" y="180" width="20" height="20" fill="#FDBA01"/>
<rect x="40" y="180" width="20" height="20" fill="#FE9B01"/>
<rect x="60" y="180" width="20" height="20" fill="#FDBA01"/>
<rect y="180" width="20" height="20" fill="#FE9B01"/>
<rect x="80" y="160" width="20" height="20" fill="#FDBA01"/>
<rect x="100" y="160" width="20" height="20" fill="#FE9B01"/>
<rect x="120" y="160" width="20" height="20" fill="#FDBA01"/>
<rect x="140" y="160" width="20" height="20" fill="#FE9B01"/>
<rect x="100" y="180" width="20" height="20" fill="#FDBA01"/>
<rect x="120" y="180" width="20" height="20" fill="#FE9B01"/>
<rect x="140" y="180" width="20" height="20" fill="#FDBA01"/>
<rect x="80" y="180" width="20" height="20" fill="#FE9B01"/>
<rect y="200" width="20" height="20" fill="#FDBA01"/>
<rect x="20" y="200" width="20" height="20" fill="#FE9B01"/>
<rect x="40" y="200" width="20" height="20" fill="#FDBA01"/>
<rect x="60" y="200" width="20" height="20" fill="#FE9B01"/>
<rect x="20" y="220" width="20" height="20" fill="#FDBA01"/>
<rect x="40" y="220" width="20" height="20" fill="#FE9B01"/>
<rect x="60" y="220" width="20" height="20" fill="#FDBA01"/>
<rect y="220" width="20" height="20" fill="#FE9B01"/>
<rect x="80" y="200" width="20" height="20" fill="#FDBA01"/>
<rect x="100" y="200" width="20" height="20" fill="#FE9B01"/>
<rect x="120" y="200" width="20" height="20" fill="#FDBA01"/>
<rect x="140" y="200" width="20" height="20" fill="#FE9B01"/>
<rect x="100" y="220" width="20" height="20" fill="#FDBA01"/>
<rect x="120" y="220" width="20" height="20" fill="#FE9B01"/>
<rect x="140" y="220" width="20" height="20" fill="#FDBA01"/>
<rect x="80" y="220" width="20" height="20" fill="#FE9B01"/>
<rect y="240" width="20" height="20" fill="#FDBA01"/>
<rect x="20" y="240" width="20" height="20" fill="#FE9B01"/>
<rect x="40" y="240" width="20" height="20" fill="#FDBA01"/>
<rect x="60" y="240" width="20" height="20" fill="#FE9B01"/>
<rect x="20" y="260" width="20" height="20" fill="#FDBA01"/>
<rect x="40" y="260" width="20" height="20" fill="#FE9B01"/>
<rect x="60" y="260" width="20" height="20" fill="#FDBA01"/>
<rect y="260" width="20" height="20" fill="#FE9B01"/>
<rect x="80" y="240" width="20" height="20" fill="#FDBA01"/>
<rect x="100" y="240" width="20" height="20" fill="#FE9B01"/>
<rect x="120" y="240" width="20" height="20" fill="#FDBA01"/>
<rect x="140" y="240" width="20" height="20" fill="#FE9B01"/>
<rect x="100" y="260" width="20" height="20" fill="#FDBA01"/>
<rect x="120" y="260" width="20" height="20" fill="#FE9B01"/>
<rect x="140" y="260" width="20" height="20" fill="#FDBA01"/>
<rect x="80" y="260" width="20" height="20" fill="#FE9B01"/>
<rect y="280" width="20" height="20" fill="#FDBA01"/>
<rect x="20" y="280" width="20" height="20" fill="#FE9B01"/>
<rect x="40" y="280" width="20" height="20" fill="#FDBA01"/>
<rect x="60" y="280" width="20" height="20" fill="#FE9B01"/>
<rect x="20" y="300" width="20" height="20" fill="#FDBA01"/>
<rect x="40" y="300" width="20" height="20" fill="#FE9B01"/>
<rect x="60" y="300" width="20" height="20" fill="#FDBA01"/>
<rect y="300" width="20" height="20" fill="#FE9B01"/>
<rect x="80" y="280" width="20" height="20" fill="#FDBA01"/>
<rect x="100" y="280" width="20" height="20" fill="#FE9B01"/>
<rect x="120" y="280" width="20" height="20" fill="#FDBA01"/>
<rect x="140" y="280" width="20" height="20" fill="#FE9B01"/>
<rect x="100" y="300" width="20" height="20" fill="#FDBA01"/>
<rect x="120" y="300" width="20" height="20" fill="#FE9B01"/>
<rect x="140" y="300" width="20" height="20" fill="#FDBA01"/>
<rect x="80" y="300" width="20" height="20" fill="#FE9B01"/>
<rect x="-480" y="-320" width="1432" height="832" fill="url(#paint0_linear_151_69565)"/>
</g>
</g>
<defs>
<linearGradient id="paint0_linear_151_69565" x1="170" y1="623" x2="86.5005" y2="-631.569" gradientUnits="userSpaceOnUse">
<stop stop-color="#02E1FE" stop-opacity="0.8"/>
<stop offset="1" stop-color="#FFA300" stop-opacity="0.3"/>
</linearGradient>
<clipPath id="clip0_151_69565">
<rect width="240" height="320" fill="white"/>
</clipPath>
</defs>
</svg>
