<svg width="198" height="210" viewBox="0 0 198 210" fill="none" xmlns="http://www.w3.org/2000/svg">
<g clip-path="url(#clip0_94_38437)">
<rect x="188.932" y="-12.2925" width="11.9167" height="11.9167" transform="rotate(40 188.932 -12.2925)" fill="white"/>
<rect x="155.355" y="-9.35498" width="11.9167" height="11.9167" transform="rotate(40 155.355 -9.35498)" fill="white"/>
<rect x="172.144" y="-10.8237" width="11.9167" height="11.9167" transform="rotate(40 172.144 -10.8237)" fill="white"/>
<rect x="190.401" y="4.49609" width="11.9167" height="11.9167" transform="rotate(40 190.401 4.49609)" fill="white"/>
<rect x="173.612" y="5.96484" width="11.9167" height="11.9167" transform="rotate(40 173.612 5.96484)" fill="white"/>
<rect x="191.87" y="21.2847" width="11.9167" height="11.9167" transform="rotate(40 191.87 21.2847)" fill="white"/>
<rect x="138.566" y="-7.88623" width="11.9167" height="11.9167" transform="rotate(40 138.566 -7.88623)" fill="white"/>
<rect x="121.778" y="-6.41724" width="11.9167" height="11.9167" transform="rotate(40 121.778 -6.41724)" fill="white"/>
<rect x="140.035" y="8.90234" width="11.9167" height="11.9167" transform="rotate(40 140.035 8.90234)" fill="white"/>
<rect x="156.824" y="7.43359" width="11.9167" height="11.9167" transform="rotate(40 156.824 7.43359)" fill="white"/>
<rect x="175.081" y="22.7534" width="11.9167" height="11.9167" transform="rotate(40 175.081 22.7534)" fill="white"/>
<rect x="158.292" y="24.2222" width="11.9167" height="11.9167" transform="rotate(40 158.292 24.2222)" fill="white"/>
<rect x="176.55" y="39.542" width="11.9167" height="11.9167" transform="rotate(40 176.55 39.542)" fill="white"/>
<rect x="88.2007" y="-3.47974" width="11.9167" height="11.9167" transform="rotate(40 88.2007 -3.47974)" fill="white"/>
<rect x="36.3662" y="-15.8618" width="11.9167" height="11.9167" transform="rotate(40 36.3662 -15.8618)" fill="white"/>
<rect x="71.4121" y="-2.01099" width="11.9167" height="11.9167" transform="rotate(40 71.4121 -2.01099)" fill="white"/>
<rect x="54.6235" y="-0.541992" width="11.9167" height="11.9167" transform="rotate(40 54.6235 -0.541992)" fill="white"/>
<rect x="72.8809" y="14.7776" width="11.9167" height="11.9167" transform="rotate(40 72.8809 14.7776)" fill="white"/>
<rect x="19.5776" y="-14.3931" width="11.9167" height="11.9167" transform="rotate(40 19.5776 -14.3931)" fill="white"/>
<rect x="2.78906" y="-12.9243" width="11.9167" height="11.9167" transform="rotate(40 2.78906 -12.9243)" fill="white"/>
<rect x="21.0464" y="2.39551" width="11.9167" height="11.9167" transform="rotate(40 21.0464 2.39551)" fill="white"/>
<rect x="37.835" y="0.926758" width="11.9167" height="11.9167" transform="rotate(40 37.835 0.926758)" fill="white"/>
<rect x="56.0923" y="16.2466" width="11.9167" height="11.9167" transform="rotate(40 56.0923 16.2466)" fill="white"/>
<rect x="39.3037" y="17.7153" width="11.9167" height="11.9167" transform="rotate(40 39.3037 17.7153)" fill="white"/>
<rect x="57.561" y="33.0352" width="11.9167" height="11.9167" transform="rotate(40 57.561 33.0352)" fill="white"/>
<rect x="104.989" y="-4.94849" width="11.9167" height="11.9167" transform="rotate(40 104.989 -4.94849)" fill="white"/>
<rect x="123.247" y="10.3713" width="11.9167" height="11.9167" transform="rotate(40 123.247 10.3713)" fill="white"/>
<rect x="106.458" y="11.8401" width="11.9167" height="11.9167" transform="rotate(40 106.458 11.8401)" fill="white"/>
<rect x="124.715" y="27.1599" width="11.9167" height="11.9167" transform="rotate(40 124.715 27.1599)" fill="white"/>
<rect x="141.504" y="25.6909" width="11.9167" height="11.9167" transform="rotate(40 141.504 25.6909)" fill="white"/>
<rect x="159.761" y="41.0107" width="11.9167" height="11.9167" transform="rotate(40 159.761 41.0107)" fill="white"/>
<rect x="142.973" y="42.4795" width="11.9167" height="11.9167" transform="rotate(40 142.973 42.4795)" fill="white"/>
<rect x="161.23" y="57.7993" width="11.9167" height="11.9167" transform="rotate(40 161.23 57.7993)" fill="white"/>
<rect x="89.6694" y="13.3088" width="11.9167" height="11.9167" transform="rotate(40 89.6694 13.3088)" fill="white"/>
<rect x="107.927" y="28.6287" width="11.9167" height="11.9167" transform="rotate(40 107.927 28.6287)" fill="white"/>
<rect x="91.1382" y="30.0974" width="11.9167" height="11.9167" transform="rotate(40 91.1382 30.0974)" fill="white"/>
<rect x="109.396" y="45.4172" width="11.9167" height="11.9167" transform="rotate(40 109.396 45.4172)" fill="white"/>
<rect x="126.184" y="43.9485" width="11.9167" height="11.9167" transform="rotate(40 126.184 43.9485)" fill="white"/>
<rect x="144.442" y="59.2681" width="11.9167" height="11.9167" transform="rotate(40 144.442 59.2681)" fill="white"/>
<rect x="127.653" y="60.7371" width="11.9167" height="11.9167" transform="rotate(40 127.653 60.7371)" fill="white"/>
<rect x="145.911" y="76.0566" width="11.9167" height="11.9167" transform="rotate(40 145.911 76.0566)" fill="white"/>
<rect x="74.3496" y="31.5662" width="11.9167" height="11.9167" transform="rotate(40 74.3496 31.5662)" fill="white"/>
<rect x="92.6069" y="46.886" width="11.9167" height="11.9167" transform="rotate(40 92.6069 46.886)" fill="white"/>
<rect x="75.8184" y="48.3547" width="11.9167" height="11.9167" transform="rotate(40 75.8184 48.3547)" fill="white"/>
<rect x="94.0762" y="63.6746" width="11.9167" height="11.9167" transform="rotate(40 94.0762 63.6746)" fill="white"/>
<rect x="110.865" y="62.2058" width="11.9167" height="11.9167" transform="rotate(40 110.865 62.2058)" fill="white"/>
<rect x="129.122" y="77.5256" width="11.9167" height="11.9167" transform="rotate(40 129.122 77.5256)" fill="white"/>
<rect x="112.333" y="78.9944" width="11.9167" height="11.9167" transform="rotate(40 112.333 78.9944)" fill="white"/>
<rect x="130.591" y="94.3142" width="11.9167" height="11.9167" transform="rotate(40 130.591 94.3142)" fill="white"/>
<rect x="193.338" y="38.0732" width="11.9167" height="11.9167" transform="rotate(40 193.338 38.0732)" fill="white"/>
<rect x="194.808" y="54.8618" width="11.9167" height="11.9167" transform="rotate(40 194.808 54.8618)" fill="white"/>
<rect x="178.019" y="56.3306" width="11.9167" height="11.9167" transform="rotate(40 178.019 56.3306)" fill="white"/>
<rect x="196.276" y="71.6504" width="11.9167" height="11.9167" transform="rotate(40 196.276 71.6504)" fill="white"/>
<rect x="179.488" y="73.1191" width="11.9167" height="11.9167" transform="rotate(40 179.488 73.1191)" fill="white"/>
<rect x="197.745" y="88.439" width="11.9167" height="11.9167" transform="rotate(40 197.745 88.439)" fill="white"/>
<rect x="162.699" y="74.5879" width="11.9167" height="11.9167" transform="rotate(40 162.699 74.5879)" fill="white"/>
<rect x="180.957" y="89.9077" width="11.9167" height="11.9167" transform="rotate(40 180.957 89.9077)" fill="white"/>
<rect x="164.168" y="91.3765" width="11.9167" height="11.9167" transform="rotate(40 164.168 91.3765)" fill="white"/>
<rect x="182.425" y="106.696" width="11.9167" height="11.9167" transform="rotate(40 182.425 106.696)" fill="white"/>
<rect x="199.214" y="105.228" width="11.9167" height="11.9167" transform="rotate(40 199.214 105.228)" fill="white"/>
<rect x="200.683" y="122.016" width="11.9167" height="11.9167" transform="rotate(40 200.683 122.016)" fill="white"/>
<rect x="147.379" y="92.8452" width="11.9167" height="11.9167" transform="rotate(40 147.379 92.8452)" fill="white"/>
<rect x="165.637" y="108.165" width="11.9167" height="11.9167" transform="rotate(40 165.637 108.165)" fill="white"/>
<rect x="148.848" y="109.634" width="11.9167" height="11.9167" transform="rotate(40 148.848 109.634)" fill="white"/>
<rect x="167.105" y="124.954" width="11.9167" height="11.9167" transform="rotate(40 167.105 124.954)" fill="white"/>
<rect x="183.894" y="123.485" width="11.9167" height="11.9167" transform="rotate(40 183.894 123.485)" fill="white"/>
<rect x="202.152" y="138.805" width="11.9167" height="11.9167" transform="rotate(40 202.152 138.805)" fill="white"/>
<rect x="185.363" y="140.273" width="11.9167" height="11.9167" transform="rotate(40 185.363 140.273)" fill="white"/>
<rect x="203.621" y="155.594" width="11.9167" height="11.9167" transform="rotate(40 203.621 155.594)" fill="white"/>
</g>
<defs>
<clipPath id="clip0_94_38437">
<rect width="198" height="210" fill="white"/>
</clipPath>
</defs>
</svg>
