<svg width="338" height="34" viewBox="0 0 338 34" fill="none" xmlns="http://www.w3.org/2000/svg">
<g clip-path="url(#clip0_97_38438)">
<path d="M61 0.0419922L40 34.042H0L21 0.0419922H61ZM30.8525 14.042L27.1475 20.042H30.1475L33.8525 14.042H30.8525Z" fill="#FCF3DE"/>
<path d="M144.5 14.542L133.133 14.3975L121 34.042H105L117.257 14.1963L105 14.042L113.538 0.000976562L153.5 0L144.5 14.542Z" fill="#FCF3DE"/>
<path d="M328.5 14.584L317.133 14.4395L305 34.084H289L301.257 14.2383L289 14.084L297.538 0.0429688L337.5 0.0419922L328.5 14.584Z" fill="#FCF3DE"/>
<path d="M224 34.042H184L205 0.0419922H245L224 34.042ZM211.146 20.042H214.146L217.853 14.042H214.853L211.146 20.042Z" fill="#FCF3DE"/>
<path d="M72.6475 20.042H76.6475L89 0.0419922H107L86 34.042H46L67 0.0419922H85L72.6475 20.042Z" fill="#FCF3DE"/>
<path d="M284.823 10.042H269L267 13.042H282.971L270 34.042H230L236.794 23.042H252.5L254.5 20.042H238.647L251 0.0419922H291L284.823 10.042Z" fill="#FCF3DE"/>
<path d="M187 19.042H165.265L156 34.042H138L159 0.0419922H199L187 19.042ZM170.5 8.04199L169 10.042H177.5L179 8.04199H170.5Z" fill="#FCF3DE"/>
</g>
<defs>
<clipPath id="clip0_97_38438">
<rect width="338" height="34" fill="white"/>
</clipPath>
</defs>
</svg>
