<svg width="741" height="42" viewBox="0 0 741 42" fill="none" xmlns="http://www.w3.org/2000/svg">
<g clip-path="url(#clip0_136_38611)">
<rect opacity="0.05" width="20.1891" height="167.788" transform="matrix(0.746433 -0.665461 0.746433 0.665461 54.5488 -15.4658)" fill="#FFF8B0"/>
<rect opacity="0.05" width="20.1891" height="167.788" transform="matrix(0.746433 -0.665461 0.746433 0.665461 110.521 -15.5649)" fill="#FFF8B0"/>
<rect opacity="0.05" width="20.1891" height="167.788" transform="matrix(0.746433 -0.665461 0.746433 0.665461 -51 -11.4658)" fill="#FFF8B0"/>
<rect opacity="0.05" width="20.1891" height="167.788" transform="matrix(0.746433 -0.665461 0.746433 0.665461 4.97266 -11.5649)" fill="#FFF8B0"/>
<rect opacity="0.05" width="20.1891" height="167.788" transform="matrix(0.746433 -0.665461 0.746433 0.665461 166.605 -15.5649)" fill="#FFF8B0"/>
<rect opacity="0.05" width="20.1891" height="167.788" transform="matrix(0.746433 -0.665461 0.746433 0.665461 226.054 -15.4658)" fill="#FFF8B0"/>
<rect opacity="0.05" width="20.1891" height="167.788" transform="matrix(0.746433 -0.665461 0.746433 0.665461 282.027 -15.5649)" fill="#FFF8B0"/>
<rect opacity="0.05" width="20.1891" height="167.788" transform="matrix(0.746433 -0.665461 0.746433 0.665461 338.111 -15.5649)" fill="#FFF8B0"/>
<rect opacity="0.05" width="20.1891" height="167.788" transform="matrix(0.746433 -0.665461 0.746433 0.665461 397.671 -15.4658)" fill="#FFF8B0"/>
<rect opacity="0.05" width="20.1891" height="167.788" transform="matrix(0.746433 -0.665461 0.746433 0.665461 453.644 -15.5649)" fill="#FFF8B0"/>
<rect opacity="0.05" width="20.1891" height="167.788" transform="matrix(0.746433 -0.665461 0.746433 0.665461 509.728 -15.5649)" fill="#FFF8B0"/>
<rect opacity="0.05" width="20.1891" height="167.788" transform="matrix(0.746433 -0.665461 0.746433 0.665461 569.176 -15.4658)" fill="#FFF8B0"/>
<rect opacity="0.05" width="20.1891" height="167.788" transform="matrix(0.746433 -0.665461 0.746433 0.665461 625.149 -15.5649)" fill="#FFF8B0"/>
<rect opacity="0.05" width="20.1891" height="167.788" transform="matrix(0.746433 -0.665461 0.746433 0.665461 681.233 -15.5649)" fill="#FFF8B0"/>
<rect opacity="0.05" width="20.1891" height="167.788" transform="matrix(0.746433 -0.665461 0.746433 0.665461 740.904 -15.4658)" fill="#FFF8B0"/>
</g>
<defs>
<clipPath id="clip0_136_38611">
<rect width="741" height="42" fill="white"/>
</clipPath>
</defs>
</svg>
